<svg height="24" viewBox="0 0 24 24" width="24" xmlns="http://www.w3.org/2000/svg"><path d="m7 17.939h-1v-8.068c.308-.231.639-.429 1-.566zm3 0h1v-9.224c-.229.265-.443.548-.621.857l-.379-.184zm-2 0h1v-8.848c-.508-.079-.623-.05-1-.01zm-4 0h1v-7.02c-.312.458-.555.971-.692 1.535l-.308-.182zm-3-5.25c-.606.547-1 1.354-1 2.268s.394 1.721 1 2.268zm18.879-.671c-.204-2.837-2.404-5.079-5.117-5.079-1.022 0-1.964.328-2.762.877v10.123h9.089c1.607 0 2.911-1.393 2.911-3.106 0-2.233-2.168-3.772-4.121-2.815zm-16.879-.027c-.302-.024-.526-.03-1 .122v5.689c.446.143.636.138 1 .138z"/></svg>